<?xml version="1.0" encoding="UTF-8"?>
<svg version="1.1" xmlns="http://www.w3.org/2000/svg" width="512" height="512">
<path d="M0 0 C6.07143665 3.71826741 10.04060125 8.93246223 11.9855957 15.7722168 C12.5737302 18.81951833 12.60857556 21.63684733 12.5703125 24.73828125 C12.56016113 25.80860596 12.55000977 26.87893066 12.53955078 27.98168945 C12.52649902 28.79210693 12.51344727 29.60252441 12.5 30.4375 C13.05210573 30.43598112 13.60421146 30.43446224 14.17304766 30.43289733 C46.89046462 30.343398 79.60785091 30.27476036 112.32536284 30.23323868 C116.25320434 30.22823582 120.18104559 30.22305853 124.10888672 30.21777344 C124.89085393 30.2167242 125.67282113 30.21567495 126.47848432 30.21459392 C139.1423948 30.1971855 151.8062327 30.16564542 164.47010012 30.12888882 C177.46300714 30.09149151 190.45587614 30.06926672 203.44883478 30.06114602 C211.46714818 30.05565572 219.48525644 30.03831103 227.50350671 30.00583413 C233.65043551 29.98220403 239.7972077 29.9796771 245.94417572 29.98506927 C248.46693308 29.98396696 250.98969805 29.97598569 253.51240921 29.9606781 C256.95254048 29.94082399 260.39178868 29.94554499 263.8319397 29.95648193 C264.8338911 29.94483057 265.83584251 29.9331792 266.86815608 29.92117476 C272.60122069 29.97055767 275.97711637 30.5565358 280.5 34.4375 C285.45040182 39.76491918 284.98037405 44.94558134 284.75 51.8125 C284.73195313 52.83472656 284.71390625 53.85695312 284.6953125 54.91015625 C284.64839491 57.42024749 284.58276729 59.92837764 284.5 62.4375 C285.13502441 62.41655273 285.77004883 62.39560547 286.42431641 62.37402344 C289.32438076 62.29045419 292.22419116 62.23871226 295.125 62.1875 C296.12402344 62.15398438 297.12304688 62.12046875 298.15234375 62.0859375 C304.11125363 62.00701154 307.93115612 62.19198969 312.5 66.4375 C316.13538357 71.02541414 317.00044388 74.02072323 317.00336456 79.84326172 C317.00917833 80.57101114 317.01499209 81.29876057 317.02098203 82.048563 C317.03558615 84.48844204 317.02169555 86.92731571 317.00793457 89.3671875 C317.01254334 91.13350946 317.01889609 92.8998276 317.02684355 94.6661377 C317.04356335 99.52097572 317.03527844 104.3754998 317.02289867 109.23033905 C317.01386137 114.46559288 317.02781136 119.70079211 317.03881836 124.93603516 C317.05662226 135.19231154 317.05275525 145.44847096 317.0411678 155.70475197 C317.03214111 164.03885484 317.03090616 172.37292489 317.03526306 180.70703125 C317.03587599 181.89234058 317.03648893 183.07764992 317.03712043 184.29887772 C317.03839931 186.70667013 317.03969616 189.11446254 317.0410108 191.52225494 C317.05242208 214.11004868 317.03929428 236.69777752 317.01780933 259.28556061 C316.99993787 278.67478124 317.00304182 298.06390609 317.02148438 317.453125 C317.04288139 339.95906146 317.05132339 362.46494102 317.03903532 384.97088623 C317.0377611 387.36991373 317.03650362 389.76894123 317.03526306 392.16796875 C317.03433741 393.93860624 317.03433741 393.93860624 317.03339306 395.74501419 C317.02993665 404.07090875 317.03577476 412.39676727 317.04518127 420.72265625 C317.05638964 430.86656404 317.05338565 441.01034799 317.0320583 451.15424156 C317.02153228 456.33167717 317.01745253 461.50890616 317.03065491 466.68634033 C317.04255242 471.42364249 317.03605989 476.16054602 317.0147447 480.89781189 C317.01026742 482.61374008 317.01257006 484.32970178 317.02224785 486.04560852 C317.03437938 488.37479994 317.02197117 490.70261893 317.00336456 493.03173828 C317.00271515 494.32636993 317.00206574 495.62100159 317.00139666 496.9548645 C316.25467753 502.14147775 313.78511222 505.1731397 310.11828613 508.78075409 C304.43837301 511.38148065 298.76012921 510.98824561 292.60742188 510.94543457 C291.17108274 510.95004489 289.73474833 510.95639869 288.29842377 510.96434355 C284.35568727 510.98104223 280.41333802 510.97278822 276.47060013 510.96039867 C272.21694565 510.95135266 267.96335802 510.96531567 263.7097168 510.97631836 C255.37850916 510.99411297 247.0474456 510.99025941 238.7162323 510.9786678 C231.94581926 510.96963745 225.17544663 510.96840774 218.4050293 510.97276306 C217.44174886 510.97337599 216.47846843 510.97398893 215.48599768 510.97462043 C213.52916526 510.97589932 211.57233285 510.97719617 209.61550045 510.9785108 C191.26251077 510.98991936 172.90960099 510.97679856 154.55662441 510.95530933 C138.80593876 510.9374381 123.05537102 510.94054213 107.3046875 510.95898438 C89.01776436 510.98038621 70.73091127 510.98882069 52.44397736 510.97653532 C50.49430848 510.97526111 48.5446396 510.97400363 46.5949707 510.97276306 C45.63567453 510.97214596 44.67637836 510.97152886 43.6880126 510.97089306 C36.92504795 510.9674381 30.1621277 510.97327165 23.39916992 510.98268127 C15.15833723 510.993895 6.91765695 510.99087441 -1.32315826 510.9695583 C-5.52848195 510.95903942 -9.73355143 510.95494022 -13.93887329 510.96815491 C-17.78800567 510.98006746 -21.63664802 510.97353546 -25.48573589 510.9522447 C-26.8786505 510.94777376 -28.27160645 510.95005602 -29.66449451 510.95974785 C-42.56527052 511.04263192 -42.56527052 511.04263192 -47.5 506.4375 C-52.45040182 501.11008082 -51.98037405 495.92941866 -51.75 489.0625 C-51.73195313 488.04027344 -51.71390625 487.01804687 -51.6953125 485.96484375 C-51.64839491 483.45475251 -51.58276729 480.94662236 -51.5 478.4375 C-52.13502441 478.45844727 -52.77004883 478.47939453 -53.42431641 478.50097656 C-56.32438076 478.58454581 -59.22419116 478.63628774 -62.125 478.6875 C-63.12402344 478.72101563 -64.12304688 478.75453125 -65.15234375 478.7890625 C-71.11125363 478.86798846 -74.93115612 478.68301031 -79.5 474.4375 C-83.13538357 469.84958586 -84.00044388 466.85427677 -84.00336456 461.03173828 C-84.00917833 460.30398886 -84.01499209 459.57623943 -84.02098203 458.826437 C-84.03558615 456.38655796 -84.02169555 453.94768429 -84.00793457 451.5078125 C-84.01254334 449.74149054 -84.01889609 447.9751724 -84.02684355 446.2088623 C-84.04356335 441.35402428 -84.03527844 436.4995002 -84.02289867 431.64466095 C-84.01386137 426.40940712 -84.02781136 421.17420789 -84.03881836 415.93896484 C-84.05662226 405.68268846 -84.05275525 395.42652904 -84.0411678 385.17024803 C-84.03214111 376.83614516 -84.03090616 368.50207511 -84.03526306 360.16796875 C-84.03587599 358.98265942 -84.03648893 357.79735008 -84.03712043 356.57612228 C-84.03839931 354.16832987 -84.03969616 351.76053746 -84.0410108 349.35274506 C-84.05242208 326.76495132 -84.03929428 304.17722248 -84.01780933 281.58943939 C-83.99993787 262.20021876 -84.00304182 242.81109391 -84.02148438 223.421875 C-84.04288139 200.91593854 -84.05132339 178.41005898 -84.03903532 155.90411377 C-84.0377611 153.50508627 -84.03650362 151.10605877 -84.03526306 148.70703125 C-84.03433741 146.93639376 -84.03433741 146.93639376 -84.03339306 145.12998581 C-84.02993665 136.80409125 -84.03577476 128.47823273 -84.04518127 120.15234375 C-84.05638964 110.00843596 -84.05338565 99.86465201 -84.0320583 89.72075844 C-84.02153228 84.54332283 -84.01745253 79.36609384 -84.03065491 74.18865967 C-84.04255242 69.45135751 -84.03605989 64.71445398 -84.0147447 59.97718811 C-84.01026742 58.26125992 -84.01257006 56.54529822 -84.02224785 54.82939148 C-84.03437938 52.50020006 -84.02197117 50.17238107 -84.00336456 47.84326172 C-84.00271515 46.54863007 -84.00206574 45.25399841 -84.00139666 43.9201355 C-83.23592646 38.60327976 -80.78556131 35.55924953 -76.80615234 32.08691406 C-72.54483529 29.96097565 -69.28989108 29.92592166 -64.6015625 30.046875 C-63.76660248 30.05253479 -62.93164246 30.05819458 -62.07138062 30.06402588 C-59.42198734 30.08629777 -56.77397984 30.13647477 -54.125 30.1875 C-52.32163421 30.20757698 -50.51824708 30.22582565 -48.71484375 30.2421875 C-44.30936731 30.28613214 -39.90491806 30.35509399 -35.5 30.4375 C-35.51740234 29.40689453 -35.53480469 28.37628906 -35.55273438 27.31445312 C-35.56680891 25.94922284 -35.58045839 24.58398813 -35.59375 23.21875 C-35.60631836 22.54102539 -35.61888672 21.86330078 -35.63183594 21.16503906 C-35.68177047 14.32400856 -34.29700085 10.3688036 -29.62890625 5.4765625 C-21.57076188 -1.98750317 -10.47978658 -4.72299859 0 0 Z M-17.7109375 16.06640625 C-20.02383561 19.13175375 -19.9149443 20.89378106 -19.75 24.6875 C-19.6675 26.585 -19.585 28.4825 -19.5 30.4375 C-14.22 30.4375 -8.94 30.4375 -3.5 30.4375 C-2.92235603 22.37151724 -2.92235603 22.37151724 -6.5 15.4375 C-10.32940982 13.52279509 -14.25359971 13.51921569 -17.7109375 16.06640625 Z M-67.5 46.4375 C-67.5 183.7175 -67.5 320.9975 -67.5 462.4375 C43.38 462.4375 154.26 462.4375 268.5 462.4375 C268.54898437 437.50703125 268.59796875 412.5765625 268.6484375 386.890625 C268.68380336 371.14062157 268.71965753 355.39062155 268.7578125 339.640625 C268.77782147 331.37044307 268.79770607 323.10026085 268.81738281 314.83007812 C268.82108997 313.27521336 268.82108997 313.27521336 268.82487202 311.68893719 C268.86462444 294.9397803 268.89735196 278.19061663 268.92749982 261.44144002 C268.95858028 244.26069177 268.997175 227.07997234 269.04279006 209.89925647 C269.0707137 199.29222068 269.09272989 188.68520605 269.10726251 178.07814333 C269.11777981 170.81099092 269.13557577 163.54387939 269.15916704 156.27675775 C269.17257412 152.07989835 269.18270344 147.88309642 269.18421364 143.68621445 C269.18566577 139.84693407 269.19621969 136.00779225 269.21413441 132.1685544 C269.219 130.7768448 269.22047267 129.38511852 269.21827881 127.99340215 C269.21579208 126.1066918 269.22667739 124.21997782 269.23828697 122.33330154 C269.24056529 121.28375455 269.24284362 120.23420756 269.24519098 119.15285611 C269.50472046 116.38719667 269.98675346 114.74974891 271.5 112.4375 C274.54983996 110.91258002 277.1423369 111.20187452 280.5 111.4375 C282.19888645 112.5855667 282.19888645 112.5855667 283.5 114.4375 C283.87719816 117.07304984 283.87719816 117.07304984 283.88031673 120.31843281 C283.88875668 121.55382779 283.89719662 122.78922278 283.90589231 124.06205398 C283.90009651 125.4404031 283.89401545 126.81875104 283.88768005 128.19709778 C283.89185035 129.6555943 283.89732618 131.11408758 283.90399987 132.57257479 C283.91851367 136.59043439 283.91419134 140.6080899 283.90683305 144.62596095 C283.90211819 148.95532662 283.91459637 153.28464706 283.92485046 157.61399841 C283.94207783 166.0999987 283.94287022 174.58592507 283.93763756 183.07193831 C283.93360139 189.96827687 283.93503283 196.86459352 283.94038582 203.76093102 C283.94113424 204.74127009 283.94188266 205.72160916 283.94265376 206.73165547 C283.9441852 208.72303449 283.94572354 210.7144135 283.94726873 212.70579251 C283.96100839 231.39639243 283.95554614 250.08695055 283.94408352 268.77754953 C283.93415291 285.88377604 283.94708623 302.98989436 283.97101771 320.09610418 C283.99539069 337.64985204 284.00502081 355.20354947 283.99836498 372.75731391 C283.99486833 382.61672751 283.99713405 392.47605792 284.01461601 402.33545876 C284.02931564 410.73006651 284.03000299 419.12453251 284.0125451 427.51913742 C284.00401358 431.80342913 284.00193772 436.08746736 284.01719666 440.37174606 C284.03099036 444.29315298 284.0263497 448.21408801 284.00695742 452.13546725 C284.00318061 453.55471983 284.00616761 454.97400973 284.01656907 456.39322922 C284.09772317 468.31311343 284.09772317 468.31311343 281.78117466 472.13378429 C278.79091359 475.15359313 276.16863435 477.19507284 271.89127845 477.81650752 C270.95147063 477.81840612 270.01166281 477.82030472 269.04337597 477.82226086 C267.9535681 477.8317174 266.86376023 477.84117394 265.74092788 477.85091704 C264.54929811 477.84606947 263.35766835 477.84122189 262.12992859 477.83622742 C260.85975523 477.84287424 259.58958188 477.84952107 258.28091842 477.85636932 C254.75766886 477.87440637 251.23462994 477.87383617 247.71134508 477.87023985 C243.91109008 477.86961644 240.11090603 477.88623198 236.3106842 477.90075684 C229.72732202 477.9235583 223.14401281 477.93543061 216.56061363 477.93988609 C207.04213096 477.94634376 197.52374411 477.96927438 188.00530002 477.99622939 C172.56238471 478.03951421 157.11947343 478.06947128 141.67651367 478.09106445 C126.67486591 478.11206906 111.67325114 478.13933963 96.67163086 478.17504883 C95.74697585 478.17724765 94.82232084 478.17944648 93.86964598 478.18171193 C89.23093681 478.19278146 84.59222795 478.20397429 79.95351923 478.21522844 C41.46904125 478.30843754 2.98454652 478.37980262 -35.5 478.4375 C-35.5 484.0475 -35.5 489.6575 -35.5 495.4375 C75.38 495.4375 186.26 495.4375 300.5 495.4375 C300.5 357.8275 300.5 220.2175 300.5 78.4375 C295.22 78.4375 289.94 78.4375 284.5 78.4375 C284.37625 80.190625 284.2525 81.94375 284.125 83.75 C283.85277339 87.60654361 283.68994248 89.15258627 281.5 92.4375 C277.86725842 93.56768627 276.16824682 93.74934852 272.6875 92.125 C270.5 90.4375 270.5 90.4375 269.5 88.4375 C269.17 74.5775 268.84 60.7175 268.5 46.4375 C173.46 46.4375 78.42 46.4375 -19.5 46.4375 C-19.5 55.3475 -19.5 64.2575 -19.5 73.4375 C-14.39359072 78.77759796 -14.39359072 78.77759796 -10.3125 78.4375 C-7.38846594 77.39784345 -6.41031659 76.79915512 -4.5 74.4375 C-3.57224344 71.97807494 -3.57224344 71.97807494 -2.9375 69.3125 C-2.24609375 66.6171875 -2.24609375 66.6171875 -1.5 64.4375 C1.60920609 62.88289695 5.13083028 62.71029307 8.5 63.4375 C10.72540401 65.58360231 11.44312897 66.86523524 11.75 69.953125 C11.06893201 77.40230617 9.42048248 82.77838302 3.859375 87.96875 C-2.4891884 92.88745678 -8.84344336 93.98321014 -16.71875 93.03125 C-22.12581579 91.87693258 -26.59973321 89.76964561 -30.1328125 85.43359375 C-33.54898958 80.13363903 -34.62943787 75.91224632 -34.81640625 69.58203125 C-34.85451416 68.37135986 -34.89262207 67.16068848 -34.93188477 65.91333008 C-34.97498779 64.37443115 -35.01809082 62.83553223 -35.0625 61.25 C-35.206875 56.361875 -35.35125 51.47375 -35.5 46.4375 C-46.06 46.4375 -56.62 46.4375 -67.5 46.4375 Z " fill="#000000" transform="translate(139.5,1.5625)"/>
<path d="M0 0 C1.7315332 -0.0299707 1.7315332 -0.0299707 3.49804688 -0.06054688 C10.17716049 -0.05671491 14.8593026 0.05184893 20.0625 4.4375 C23.73227548 9.831927 24.63044235 14.6850685 24.453125 21.09375 C24.44746521 21.88148804 24.44180542 22.66922607 24.43597412 23.48083496 C24.41379902 25.96704034 24.36364337 28.45173928 24.3125 30.9375 C24.29241039 32.63539567 24.27416396 34.33331421 24.2578125 36.03125 C24.2139969 40.16723639 24.14510605 44.3021139 24.0625 48.4375 C25.14668213 48.41655273 26.23086426 48.39560547 27.34790039 48.37402344 C31.39382574 48.30128898 35.43969399 48.25557957 39.48608398 48.21777344 C41.23292784 48.19773378 42.97970525 48.17049413 44.72631836 48.13574219 C47.24609832 48.08688418 49.76498685 48.06445514 52.28515625 48.046875 C53.05835709 48.02622986 53.83155792 48.00558472 54.62818909 47.98431396 C60.23737639 47.98202461 63.44497001 49.22092846 68.0625 52.4375 C72.97843639 58.48481883 72.63650749 64.43924668 72.5 72 C72.50708984 73.11052734 72.51417969 74.22105469 72.52148438 75.36523438 C72.47024024 81.95207661 72.19459834 87.00361094 67.5625 92.08203125 C62.24541229 96.22215944 58.43687522 96.57889734 51.89453125 96.53515625 C51.09971848 96.5337413 50.3049057 96.53232635 49.48600769 96.53086853 C46.94896675 96.52527378 44.41201425 96.51272228 41.875 96.5 C40.15429815 96.49498432 38.43359492 96.49042153 36.71289062 96.48632812 C32.4960597 96.47530607 28.27929484 96.45804506 24.0625 96.4375 C24.07821045 97.49662598 24.0939209 98.55575195 24.11010742 99.64697266 C24.16460122 103.59416026 24.19892046 107.54131489 24.22729492 111.48876953 C24.24233738 113.19390463 24.26277653 114.89900132 24.28881836 116.60400391 C24.32540284 119.06162012 24.34227173 121.51872269 24.35546875 123.9765625 C24.37095261 124.73305084 24.38643646 125.48953918 24.40238953 126.26895142 C24.40410672 131.72756309 23.36926846 135.90846478 19.5625 140.08203125 C13.19094469 145.04321624 8.03861191 144.65073959 0.25 144.6875 C-1.37131836 144.7184375 -1.37131836 144.7184375 -3.02539062 144.75 C-9.59767981 144.78227644 -14.50561679 144.56776877 -19.58203125 139.9375 C-23.72215944 134.62041229 -24.07889734 130.81187522 -24.03515625 124.26953125 C-24.0337413 123.47471848 -24.03232635 122.6799057 -24.03086853 121.86100769 C-24.02527378 119.32396675 -24.01272228 116.78701425 -24 114.25 C-23.99498432 112.52929815 -23.99042153 110.80859492 -23.98632812 109.08789062 C-23.97530607 104.8710597 -23.95804506 100.65429484 -23.9375 96.4375 C-24.99662598 96.45321045 -26.05575195 96.4689209 -27.14697266 96.48510742 C-31.09416026 96.53960122 -35.04131489 96.57392046 -38.98876953 96.60229492 C-40.69390463 96.61733738 -42.39900132 96.63777653 -44.10400391 96.66381836 C-46.56162012 96.70040284 -49.01872269 96.71727173 -51.4765625 96.73046875 C-52.23305084 96.74595261 -52.98953918 96.76143646 -53.76895142 96.77738953 C-59.2269657 96.77910653 -63.44628331 95.76303007 -67.58203125 91.90234375 C-72.55761997 85.39580465 -72.21624287 80.87184701 -72.3125 72.8125 C-72.36857422 71.06646484 -72.36857422 71.06646484 -72.42578125 69.28515625 C-72.49020336 62.96463183 -72.15050729 58.33366215 -68.60400391 53.01025391 C-63.65153161 48.33638538 -58.68366644 48.01670258 -52.2578125 48.14453125 C-51.03866653 48.15089851 -51.03866653 48.15089851 -49.79489136 48.15739441 C-47.21708041 48.17409196 -44.6400718 48.21172638 -42.0625 48.25 C-40.30730301 48.26505842 -38.55209369 48.2787448 -36.796875 48.29101562 C-32.51011087 48.32396608 -28.22394114 48.37568547 -23.9375 48.4375 C-23.96368408 47.35855469 -23.98986816 46.27960938 -24.0168457 45.16796875 C-24.10787856 41.13514234 -24.16494012 37.10240527 -24.2121582 33.06884766 C-24.23718233 31.32878304 -24.27121294 29.58882227 -24.31469727 27.84912109 C-24.3758892 25.33665245 -24.40382959 22.8255822 -24.42578125 20.3125 C-24.45158768 19.54446045 -24.4773941 18.7764209 -24.50398254 17.98510742 C-24.50701916 12.03365862 -22.67745077 8.05369126 -18.9375 3.4375 C-13.49967024 -0.84659365 -6.61133711 -0.04047007 0 0 Z M-7.9375 16.4375 C-7.95731934 17.72438721 -7.97713867 19.01127441 -7.99755859 20.3371582 C-8.07356405 25.10640207 -8.16228924 29.87533881 -8.25488281 34.64428711 C-8.29319348 36.70932965 -8.32804266 38.7744394 -8.359375 40.83959961 C-8.40498014 43.80607138 -8.46298201 46.7720796 -8.5234375 49.73828125 C-8.54076431 51.12591423 -8.54076431 51.12591423 -8.55844116 52.5415802 C-8.57831085 53.40224594 -8.59818054 54.26291168 -8.61865234 55.1496582 C-8.63197601 55.90688675 -8.64529968 56.6641153 -8.6590271 57.44429016 C-8.9375 59.4375 -8.9375 59.4375 -10.9375 62.4375 C-13.64698975 63.34066325 -15.33885334 63.584075 -18.13354492 63.64282227 C-19.39451241 63.6727401 -19.39451241 63.6727401 -20.68095398 63.70326233 C-22.03577629 63.72833107 -22.03577629 63.72833107 -23.41796875 63.75390625 C-24.34595779 63.77468735 -25.27394684 63.79546844 -26.23005676 63.81687927 C-29.1949624 63.88227323 -32.15995672 63.94121262 -35.125 64 C-37.1347748 64.04319487 -39.14454063 64.08680947 -41.15429688 64.13085938 C-46.08194032 64.23794427 -51.00967299 64.33924045 -55.9375 64.4375 C-55.9375 69.7175 -55.9375 74.9975 -55.9375 80.4375 C-54.01502441 80.45151855 -54.01502441 80.45151855 -52.05371094 80.46582031 C-47.29733558 80.50570061 -42.54160838 80.57145415 -37.78564453 80.64501953 C-35.72746102 80.67324049 -33.6691689 80.69444941 -31.61083984 80.70849609 C-28.65145215 80.7299099 -25.6933718 80.77655221 -22.734375 80.828125 C-21.35448395 80.82996796 -21.35448395 80.82996796 -19.94671631 80.83184814 C-16.22556429 80.91711057 -13.64959249 81.04309369 -10.36328125 82.86328125 C-8.14024358 86.87693008 -8.33416019 90.71559837 -8.328125 95.234375 C-8.31158875 96.18314514 -8.29505249 97.13191528 -8.27801514 98.10943604 C-8.22948561 101.13552288 -8.20815305 104.16110701 -8.1875 107.1875 C-8.15934449 109.24091078 -8.12941765 111.29429808 -8.09765625 113.34765625 C-8.02372516 118.37756279 -7.97418067 123.40718944 -7.9375 128.4375 C-2.6575 128.4375 2.6225 128.4375 8.0625 128.4375 C8.0718457 127.15584961 8.08119141 125.87419922 8.09082031 124.55371094 C8.13070061 119.79733558 8.19645415 115.04160838 8.27001953 110.28564453 C8.29824049 108.22746102 8.31944941 106.1691689 8.33349609 104.11083984 C8.3549099 101.15145215 8.40155221 98.1933718 8.453125 95.234375 C8.45435364 94.31444763 8.45558228 93.39452026 8.45684814 92.44671631 C8.54211057 88.72556429 8.66809369 86.14959249 10.48828125 82.86328125 C14.50193008 80.64024358 18.34059837 80.83416019 22.859375 80.828125 C24.28253021 80.80332062 24.28253021 80.80332062 25.73443604 80.77801514 C28.76052288 80.72948561 31.78610701 80.70815305 34.8125 80.6875 C36.86591078 80.65934449 38.91929808 80.62941765 40.97265625 80.59765625 C46.00256279 80.52372516 51.03218944 80.47418067 56.0625 80.4375 C56.0625 75.1575 56.0625 69.8775 56.0625 64.4375 C54.81114258 64.41768066 53.55978516 64.39786133 52.27050781 64.37744141 C47.626098 64.30134707 42.98199992 64.21263537 38.33789062 64.12011719 C36.32818762 64.08184331 34.31841649 64.04698764 32.30859375 64.015625 C29.4190232 63.96994009 26.52992104 63.91195113 23.640625 63.8515625 C22.74257141 63.84001129 21.84451782 63.82846008 20.91925049 63.81655884 C20.07868103 63.79668915 19.23811157 63.77681946 18.37207031 63.75634766 C17.26620575 63.73636215 17.26620575 63.73636215 16.13800049 63.7159729 C13.73782317 63.39393764 12.11919332 62.70498565 10.0625 61.4375 C8.9209378 59.1543756 8.90915628 57.80270695 8.85717773 55.26318359 C8.8272599 53.97207169 8.8272599 53.97207169 8.79673767 52.65487671 C8.78002518 51.72462677 8.76331268 50.79437683 8.74609375 49.8359375 C8.72531265 48.88433746 8.70453156 47.93273743 8.68312073 46.95230103 C8.61761867 43.90577568 8.5587372 40.85916257 8.5 37.8125 C8.45681541 35.74999084 8.41320114 33.68749063 8.36914062 31.625 C8.2619366 26.56259046 8.16067098 21.50009245 8.0625 16.4375 C2.7825 16.4375 -2.4975 16.4375 -7.9375 16.4375 Z " fill="#000000" transform="translate(239.9375,95.5625)"/>
<path d="M0 0 C0.67861399 -0.00779995 1.35722797 -0.01559991 2.05640602 -0.02363622 C4.32380555 -0.04353461 6.58952249 -0.02780245 8.85693359 -0.01205444 C10.48501565 -0.01883161 12.11309003 -0.02773531 13.7411499 -0.03860474 C18.15859533 -0.06139316 22.57545669 -0.05256381 26.99291229 -0.03670931 C31.61638459 -0.02404788 36.23980698 -0.03579109 40.86328125 -0.04364014 C48.62753272 -0.052736 56.39154636 -0.04075048 64.15576172 -0.01693726 C73.13151674 0.01027396 82.10670389 0.00145975 91.08244514 -0.02606928 C98.78961611 -0.04876118 106.49661616 -0.05196006 114.20380974 -0.03887594 C118.80664249 -0.03108185 123.40920834 -0.03003861 128.01202393 -0.04655838 C132.33950626 -0.06100514 136.66625669 -0.05097818 140.99365997 -0.0220871 C142.58153315 -0.0154773 144.16946795 -0.01737223 145.75731659 -0.02840042 C147.92595565 -0.04207344 150.09225232 -0.02492451 152.26074219 0 C153.47378021 0.00188513 154.68681824 0.00377026 155.93661499 0.00571251 C160.06613342 0.81927387 161.56195801 2.36254162 164.13037109 5.63491821 C164.69287109 9.19741821 164.69287109 9.19741821 164.13037109 12.63491821 C161.92251992 15.63211515 160.73624049 16.53668985 157.02563477 17.13828278 C155.79562744 17.13979088 154.56562012 17.14129898 153.29833984 17.14285278 C152.61170761 17.14909275 151.92507538 17.15533271 151.21763611 17.16176176 C148.91736489 17.17771389 146.61815013 17.16507989 144.31787109 17.15249634 C142.6686135 17.15791651 141.01936075 17.16503858 139.37011719 17.17373657 C134.89076894 17.19198547 130.41178884 17.18489602 125.93243408 17.17222023 C121.24710083 17.16210064 116.56179932 17.17148301 111.87646484 17.17776489 C104.00791762 17.18504434 96.13952053 17.17544581 88.27099609 17.15640259 C79.17091339 17.13463326 70.07118913 17.14168442 60.97111511 17.16370821 C53.1612389 17.18185375 45.35147067 17.18442468 37.5415802 17.17395353 C32.87564212 17.16771394 28.20987259 17.16689573 23.54394531 17.18009949 C19.15748292 17.1916451 14.77148316 17.18365608 10.3850708 17.16052246 C8.77419809 17.15522844 7.16328651 17.15676101 5.5524292 17.16557312 C3.35522609 17.17648561 1.15951036 17.16281962 -1.03759766 17.14285278 C-2.88260864 17.14059063 -2.88260864 17.14059063 -4.76489258 17.13828278 C-8.4754983 16.53668985 -9.66177773 15.63211515 -11.86962891 12.63491821 C-12.43212891 9.19741821 -12.43212891 9.19741821 -11.86962891 5.63491821 C-8.21632658 0.98030051 -5.84843681 0.00908879 0 0 Z " fill="#000000" transform="translate(195.86962890625,335.3650817871094)"/>
<path d="M0 0 C0.66873803 -0.00297112 1.33747607 -0.00594224 2.02647889 -0.0090034 C4.27190715 -0.01768923 6.51728209 -0.01919854 8.76272583 -0.02069092 C10.37079991 -0.02531913 11.97887288 -0.0303438 13.58694458 -0.03573608 C17.95886363 -0.04886077 22.33076732 -0.05530504 26.702703 -0.05974674 C29.43333614 -0.06267703 32.16396507 -0.06678173 34.8945961 -0.07125092 C43.43596975 -0.08492531 51.9773338 -0.09459256 60.51871765 -0.09845281 C70.38270631 -0.10293518 80.24655652 -0.12049161 90.11050308 -0.1494534 C97.7326622 -0.17105729 105.35478233 -0.18115638 112.97697175 -0.18249393 C117.53060929 -0.18354278 122.08411667 -0.18946769 126.63772202 -0.20731354 C130.92065497 -0.22377216 135.20335959 -0.22596053 139.48631287 -0.21717453 C141.05807735 -0.216403 142.629854 -0.22076217 144.20158768 -0.23063278 C146.3478807 -0.24332106 148.49336118 -0.23749327 150.63964844 -0.22705078 C152.4409789 -0.22925062 152.4409789 -0.22925062 154.27869987 -0.2314949 C157.76847856 0.17820613 159.65271303 1.04586142 162.44680786 3.14044189 C163.99267662 6.23217941 163.74040307 8.73473742 163.44680786 12.14044189 C161.25797875 15.15707616 160.05307194 16.04214954 156.34207153 16.64380646 C155.11206421 16.64531456 153.88205688 16.64682266 152.61477661 16.64837646 C151.92814438 16.65461643 151.24151215 16.66085639 150.53407288 16.66728544 C148.23380166 16.68323758 145.93458689 16.67060357 143.63430786 16.65802002 C141.98505027 16.66344019 140.33579752 16.67056226 138.68655396 16.67926025 C134.2072057 16.69750915 129.72822561 16.6904197 125.24887085 16.67774391 C120.5635376 16.66762433 115.87823609 16.67700669 111.19290161 16.68328857 C103.32435439 16.69056802 95.45595729 16.68096949 87.58743286 16.66192627 C78.48735015 16.64015694 69.3876259 16.6472081 60.28755188 16.66923189 C52.47767567 16.68737744 44.66790744 16.68994836 36.85801697 16.67947721 C32.19207889 16.67323762 27.52630936 16.67241942 22.86038208 16.68562317 C18.47391969 16.69716878 14.08791992 16.68917976 9.70150757 16.66604614 C8.09063485 16.66075212 6.47972328 16.66228469 4.86886597 16.6710968 C2.67166285 16.68200929 0.47594712 16.6683433 -1.72116089 16.64837646 C-3.56617188 16.64611431 -3.56617188 16.64611431 -5.44845581 16.64380646 C-9.1586357 16.04228257 -10.35407187 15.14572803 -12.55319214 12.14044189 C-13.02237897 8.38694728 -13.08455595 6.10195736 -11.24069214 2.76544189 C-7.93855031 -0.41439838 -4.34623693 0.01077263 0 0 Z " fill="#000000" transform="translate(196.55319213867188,383.85955810546875)"/>
<path d="M0 0 C0.67861399 -0.00779995 1.35722797 -0.01559991 2.05640602 -0.02363622 C4.32380555 -0.04353461 6.58952249 -0.02780245 8.85693359 -0.01205444 C10.48501565 -0.01883161 12.11309003 -0.02773531 13.7411499 -0.03860474 C18.15859533 -0.06139316 22.57545669 -0.05256381 26.99291229 -0.03670931 C31.61638459 -0.02404788 36.23980698 -0.03579109 40.86328125 -0.04364014 C48.62753272 -0.052736 56.39154636 -0.04075048 64.15576172 -0.01693726 C73.13151674 0.01027396 82.10670389 0.00145975 91.08244514 -0.02606928 C98.78961611 -0.04876118 106.49661616 -0.05196006 114.20380974 -0.03887594 C118.80664249 -0.03108185 123.40920834 -0.03003861 128.01202393 -0.04655838 C132.33950626 -0.06100514 136.66625669 -0.05097818 140.99365997 -0.0220871 C142.58153315 -0.0154773 144.16946795 -0.01737223 145.75731659 -0.02840042 C147.92595565 -0.04207344 150.09225232 -0.02492451 152.26074219 0 C153.47378021 0.00188513 154.68681824 0.00377026 155.93661499 0.00571251 C160.06614389 0.81927593 161.55915277 2.36503311 164.13037109 5.63491821 C164.75537109 9.19741821 164.75537109 9.19741821 164.13037109 12.63491821 C161.44768437 15.4103885 159.7744842 16.53283687 155.93661499 17.14107609 C154.72357697 17.14388301 153.51053894 17.14668993 152.26074219 17.14958191 C151.5821282 17.15652744 150.90351421 17.16347297 150.20433617 17.17062896 C147.93715641 17.18888221 145.67102508 17.17864031 143.40380859 17.16836548 C141.77572854 17.17542481 140.14765504 17.18416988 138.51959229 17.19447327 C134.1022306 17.2169743 129.68522707 17.21402613 125.2678299 17.2051518 C121.57979843 17.2000421 117.89183427 17.20733422 114.20380974 17.21462387 C105.50414013 17.23162475 96.80464593 17.22805468 88.10498047 17.21133423 C79.1292396 17.19440632 70.15398483 17.2102561 61.17829704 17.24255711 C53.47113889 17.26924247 45.76413216 17.27653206 38.05693245 17.26804203 C33.45408463 17.26311048 28.85152941 17.26534081 24.24871826 17.28582954 C19.92126029 17.30417063 15.59450244 17.29824771 11.26708221 17.27363014 C9.67920024 17.26861748 8.09126506 17.27212391 6.5034256 17.28477859 C4.33481071 17.30069447 2.1685057 17.28577736 0 17.2631073 C-1.81955704 17.26222784 -1.81955704 17.26222784 -3.6758728 17.2613306 C-7.79441001 16.45353481 -9.28753522 14.87612049 -11.86962891 11.63491821 C-12.49462891 8.63491821 -12.49462891 8.63491821 -11.86962891 5.63491821 C-8.18149568 1.00608254 -5.86051846 0.00910757 0 0 Z " fill="#000000" transform="translate(195.86962890625,287.3650817871094)"/>
<path d="M0 0 C1.31935547 -0.00064453 2.63871094 -0.00128906 3.99804688 -0.00195312 C4.6800415 0.00843994 5.36203613 0.01883301 6.06469727 0.02954102 C8.15005785 0.05856194 10.23288247 0.05012672 12.31835938 0.03710938 C22.38003403 0.10107112 22.38003403 0.10107112 25.45483398 1.81225586 C28.05337942 4.48840457 28.02707946 6.85576517 28.08984375 10.49609375 C26.74421976 13.44365107 26.00429831 15.03886647 23.08984375 16.49609375 C18.7013789 16.7542178 14.30915431 16.76709465 9.9140625 16.79125977 C7.72983065 16.80847562 5.547112 16.85236409 3.36328125 16.89648438 C1.97266737 16.90661152 0.58204064 16.91512756 -0.80859375 16.921875 C-2.07364746 16.93645752 -3.33870117 16.95104004 -4.64208984 16.96606445 C-8.46196909 16.41673922 -9.61030837 15.52833681 -11.91015625 12.49609375 C-12.4765625 10.49609375 -12.4765625 10.49609375 -12.47265625 8.49609375 C-12.49457031 7.83609375 -12.51648438 7.17609375 -12.5390625 6.49609375 C-10.70516429 0.66406962 -5.35620614 -0.00823536 0 0 Z " fill="#000000" transform="translate(131.91015625,287.50390625)"/>
<path d="M0 0 C1.27423828 0.00708984 2.54847656 0.01417969 3.86132812 0.02148438 C4.51963623 0.03800049 5.17794434 0.0545166 5.85620117 0.0715332 C7.86895741 0.1210412 9.87926716 0.13302272 11.89257812 0.13867188 C22.78278612 0.27652261 22.78278612 0.27652261 26.30859375 2.55859375 C28.39018395 5.23492401 28.30446966 6.67613043 28.18359375 10.12109375 C27.30859375 13.55859375 27.30859375 13.55859375 25.69335938 15.24633789 C22.45455967 17.02853982 19.96489496 16.9634823 16.27734375 16.9921875 C15.26794739 17.00005028 15.26794739 17.00005028 14.23815918 17.0080719 C12.81943132 17.01447785 11.40065025 17.01317352 9.98193359 17.00463867 C7.81511728 16.9961194 5.65093162 17.02491692 3.484375 17.05664062 C2.10286537 17.05825267 0.72135109 17.05767505 -0.66015625 17.0546875 C-2.53864258 17.05746704 -2.53864258 17.05746704 -4.45507812 17.06030273 C-7.69140625 16.55859375 -7.69140625 16.55859375 -10.09570312 14.74243164 C-11.69140625 12.55859375 -11.69140625 12.55859375 -12.25390625 9.12109375 C-11.13191384 2.01514185 -6.76342314 -0.07822506 0 0 Z " fill="#000000" transform="translate(131.69140625,335.44140625)"/>
<path d="M0 0 C1.28841797 -0.01224609 2.57683594 -0.02449219 3.90429688 -0.03710938 C5.14115234 -0.03904297 6.37800781 -0.04097656 7.65234375 -0.04296875 C8.78534912 -0.04707764 9.91835449 -0.05118652 11.08569336 -0.05541992 C14.00306166 0.18264958 15.63080832 0.6095662 18.0625 2.1875 C20.1440902 4.86383026 20.05837591 6.30503668 19.9375 9.75 C19.0625 13.1875 19.0625 13.1875 17.44726562 14.87524414 C14.20846592 16.65744607 11.71880121 16.59238855 8.03125 16.62109375 C7.02185364 16.62895653 7.02185364 16.62895653 5.99206543 16.63697815 C4.57333757 16.6433841 3.1545565 16.64207977 1.73583984 16.63354492 C-0.43097647 16.62502565 -2.59516213 16.65382317 -4.76171875 16.68554688 C-6.14322838 16.68715892 -7.52474266 16.6865813 -8.90625 16.68359375 C-10.78473633 16.68637329 -10.78473633 16.68637329 -12.70117188 16.68920898 C-15.9375 16.1875 -15.9375 16.1875 -18.34960938 14.37524414 C-20.65201941 11.20305836 -20.41540448 9.01073582 -19.9375 5.1875 C-15.93945471 -2.04705814 -7.20621708 0.00359412 0 0 Z " fill="#000000" transform="translate(139.9375,383.8125)"/>
</svg>
